<svg width="155" height="100" viewBox="0 0 155 100" fill="none" xmlns="http://www.w3.org/2000/svg">
<g clip-path="url(#clip0_1_245)">
<path d="M65.3751 47.1818H67.3864L67.4035 45.2131C71.0938 44.9318 73.233 42.9716 73.2416 40.0142C73.233 37.108 71.0427 35.5653 68.0086 34.8835L67.5058 34.7642L67.5399 30.5028C68.6734 30.767 69.3637 31.4915 69.466 32.5653H73.0029C72.9603 29.7443 70.8552 27.7244 67.5739 27.3665L67.591 25.3636H65.5796L65.5626 27.3494C62.2302 27.6733 59.8779 29.6847 59.895 32.5909C59.8864 35.1648 61.7018 36.6392 64.6506 37.3466L65.4688 37.5511L65.4262 42.0597C64.037 41.7955 63.0995 40.9432 63.0058 39.5199H59.4347C59.52 42.9631 61.7785 44.8892 65.3921 45.2045L65.3751 47.1818ZM67.4376 42.0597L67.4717 38.0795C68.7927 38.4972 69.5086 39.0341 69.5171 40.0057C69.5086 41.0369 68.7245 41.804 67.4376 42.0597ZM65.4944 34.2443C64.4291 33.8778 63.662 33.3239 63.6791 32.3438C63.6791 31.4318 64.3268 30.7244 65.5285 30.4773L65.4944 34.2443Z" fill="white"/>
</g>
<path d="M67.1682 64.112C67.1682 65.04 66.8482 65.8133 66.2082 66.432C65.5789 67.04 64.6135 67.344 63.3122 67.344H61.1682V72H59.7122V60.848H63.3122C64.5709 60.848 65.5255 61.152 66.1762 61.76C66.8375 62.368 67.1682 63.152 67.1682 64.112ZM63.3122 66.144C64.1229 66.144 64.7202 65.968 65.1042 65.616C65.4882 65.264 65.6802 64.7627 65.6802 64.112C65.6802 62.736 64.8909 62.048 63.3122 62.048H61.1682V66.144H63.3122ZM77.0778 67.28C77.0778 67.5573 77.0618 67.8507 77.0298 68.16H70.0218C70.0752 69.024 70.3685 69.7013 70.9018 70.192C71.4458 70.672 72.1018 70.912 72.8698 70.912C73.4992 70.912 74.0218 70.768 74.4378 70.48C74.8645 70.1813 75.1632 69.7867 75.3338 69.296H76.9018C76.6672 70.1387 76.1978 70.8267 75.4938 71.36C74.7898 71.8827 73.9152 72.144 72.8698 72.144C72.0378 72.144 71.2912 71.9573 70.6298 71.584C69.9792 71.2107 69.4672 70.6827 69.0938 70C68.7205 69.3067 68.5338 68.5067 68.5338 67.6C68.5338 66.6933 68.7152 65.8987 69.0778 65.216C69.4405 64.5333 69.9472 64.0107 70.5978 63.648C71.2592 63.2747 72.0165 63.088 72.8698 63.088C73.7018 63.088 74.4378 63.2693 75.0778 63.632C75.7178 63.9947 76.2085 64.496 76.5498 65.136C76.9018 65.7653 77.0778 66.48 77.0778 67.28ZM75.5738 66.976C75.5738 66.4213 75.4512 65.9467 75.2058 65.552C74.9605 65.1467 74.6245 64.8427 74.1978 64.64C73.7818 64.4267 73.3178 64.32 72.8058 64.32C72.0698 64.32 71.4405 64.5547 70.9178 65.024C70.4058 65.4933 70.1125 66.144 70.0378 66.976H75.5738ZM80.5557 64.656C80.8117 64.1547 81.1744 63.7653 81.6437 63.488C82.1237 63.2107 82.705 63.072 83.3877 63.072V64.576H83.0037C81.3717 64.576 80.5557 65.4613 80.5557 67.232V72H79.0997V63.232H80.5557V64.656ZM94.9741 56.928L90.5901 74.72H89.1501L93.5181 56.928H94.9741ZM112.153 63.072C112.836 63.072 113.444 63.216 113.977 63.504C114.51 63.7813 114.932 64.2027 115.241 64.768C115.55 65.3333 115.705 66.0213 115.705 66.832V72H114.265V67.04C114.265 66.1653 114.046 65.4987 113.609 65.04C113.182 64.5707 112.601 64.336 111.865 64.336C111.108 64.336 110.505 64.5813 110.057 65.072C109.609 65.552 109.385 66.2507 109.385 67.168V72H107.945V67.04C107.945 66.1653 107.726 65.4987 107.289 65.04C106.862 64.5707 106.281 64.336 105.545 64.336C104.788 64.336 104.185 64.5813 103.737 65.072C103.289 65.552 103.065 66.2507 103.065 67.168V72H101.609V63.232H103.065V64.496C103.353 64.0373 103.737 63.6853 104.217 63.44C104.708 63.1947 105.246 63.072 105.833 63.072C106.569 63.072 107.22 63.2373 107.785 63.568C108.35 63.8987 108.772 64.384 109.049 65.024C109.294 64.4053 109.7 63.9253 110.265 63.584C110.83 63.2427 111.46 63.072 112.153 63.072ZM122.017 72.144C121.196 72.144 120.449 71.9573 119.777 71.584C119.116 71.2107 118.593 70.6827 118.209 70C117.836 69.3067 117.649 68.5067 117.649 67.6C117.649 66.704 117.841 65.9147 118.225 65.232C118.62 64.5387 119.153 64.0107 119.825 63.648C120.497 63.2747 121.249 63.088 122.081 63.088C122.913 63.088 123.665 63.2747 124.337 63.648C125.009 64.0107 125.537 64.5333 125.921 65.216C126.316 65.8987 126.513 66.6933 126.513 67.6C126.513 68.5067 126.311 69.3067 125.905 70C125.511 70.6827 124.972 71.2107 124.289 71.584C123.607 71.9573 122.849 72.144 122.017 72.144ZM122.017 70.864C122.54 70.864 123.031 70.7413 123.489 70.496C123.948 70.2507 124.316 69.8827 124.593 69.392C124.881 68.9013 125.025 68.304 125.025 67.6C125.025 66.896 124.887 66.2987 124.609 65.808C124.332 65.3173 123.969 64.9547 123.521 64.72C123.073 64.4747 122.588 64.352 122.065 64.352C121.532 64.352 121.041 64.4747 120.593 64.72C120.156 64.9547 119.804 65.3173 119.537 65.808C119.271 66.2987 119.137 66.896 119.137 67.6C119.137 68.3147 119.265 68.9173 119.521 69.408C119.788 69.8987 120.14 70.2667 120.577 70.512C121.015 70.7467 121.495 70.864 122.017 70.864ZM132.8 63.072C133.866 63.072 134.73 63.3973 135.392 64.048C136.053 64.688 136.384 65.616 136.384 66.832V72H134.944V67.04C134.944 66.1653 134.725 65.4987 134.288 65.04C133.85 64.5707 133.253 64.336 132.496 64.336C131.728 64.336 131.114 64.576 130.656 65.056C130.208 65.536 129.984 66.2347 129.984 67.152V72H128.528V63.232H129.984V64.48C130.272 64.032 130.661 63.6853 131.152 63.44C131.653 63.1947 132.202 63.072 132.8 63.072ZM140.638 64.432V69.6C140.638 70.0267 140.729 70.3307 140.91 70.512C141.092 70.6827 141.406 70.768 141.854 70.768H142.926V72H141.614C140.804 72 140.196 71.8133 139.79 71.44C139.385 71.0667 139.182 70.4533 139.182 69.6V64.432H138.046V63.232H139.182V61.024H140.638V63.232H142.926V64.432H140.638ZM149.142 63.072C149.804 63.072 150.401 63.216 150.934 63.504C151.468 63.7813 151.884 64.2027 152.182 64.768C152.492 65.3333 152.646 66.0213 152.646 66.832V72H151.206V67.04C151.206 66.1653 150.988 65.4987 150.55 65.04C150.113 64.5707 149.516 64.336 148.758 64.336C147.99 64.336 147.377 64.576 146.918 65.056C146.47 65.536 146.246 66.2347 146.246 67.152V72H144.79V60.16H146.246V64.48C146.534 64.032 146.929 63.6853 147.43 63.44C147.942 63.1947 148.513 63.072 149.142 63.072Z" fill="#E0E0E0"/>
<path d="M43.2494 32.844H19.5374V43.332C20.5507 42.2173 21.9694 41.3053 23.7934 40.596C25.6174 39.8867 27.5934 39.532 29.7214 39.532C33.5214 39.532 36.6627 40.3933 39.1453 42.116C41.6787 43.8387 43.528 46.068 44.6934 48.804C45.8587 51.54 46.4414 54.504 46.4414 57.696C46.4414 63.624 44.7694 68.336 41.4254 71.832C38.0814 75.2773 33.3694 77 27.2894 77C23.236 77 19.7147 76.316 16.7254 74.948C13.736 73.5293 11.4307 71.5787 9.80935 69.096C8.18802 66.6133 7.30135 63.7507 7.14935 60.508H19.8414C20.1454 62.0787 20.88 63.396 22.0454 64.46C23.2107 65.4733 24.8067 65.98 26.8334 65.98C29.2147 65.98 30.988 65.22 32.1534 63.7C33.3187 62.18 33.9014 60.1533 33.9014 57.62C33.9014 55.1373 33.2934 53.2373 32.0774 51.92C30.8614 50.6027 29.088 49.944 26.7574 49.944C25.0347 49.944 23.616 50.3747 22.5014 51.236C21.3867 52.0467 20.652 53.136 20.2974 54.504H7.75735V21.444H43.2494V32.844Z" fill="white"/>
<defs>
<clipPath id="clip0_1_245">
<rect width="16" height="29" fill="white" transform="translate(58.4802 21)"/>
</clipPath>
</defs>
</svg>
