<svg width="184" height="100" viewBox="0 0 184 100" fill="none" xmlns="http://www.w3.org/2000/svg">
<g clip-path="url(#clip0_1_227)">
<path d="M94.8528 50.1818H96.8642L96.8812 48.2131C100.572 47.9318 102.711 45.9716 102.719 43.0142C102.711 40.108 100.52 38.5653 97.4864 37.8835L96.9835 37.7642L97.0176 33.5028C98.1511 33.767 98.8415 34.4915 98.9437 35.5653H102.481C102.438 32.7443 100.333 30.7244 97.0517 30.3665L97.0687 28.3636H95.0574L95.0403 30.3494C91.7079 30.6733 89.3557 32.6847 89.3727 35.5909C89.3642 38.1648 91.1795 39.6392 94.1284 40.3466L94.9466 40.5511L94.904 45.0597C93.5148 44.7955 92.5773 43.9432 92.4835 42.5199H88.9125C88.9977 45.9631 91.2562 47.8892 94.8699 48.2045L94.8528 50.1818ZM96.9153 45.0597L96.9494 41.0795C98.2704 41.4972 98.9864 42.0341 98.9949 43.0057C98.9864 44.0369 98.2023 44.804 96.9153 45.0597ZM94.9722 37.2443C93.9068 36.8778 93.1398 36.3239 93.1568 35.3438C93.1568 34.4318 93.8045 33.7244 95.0062 33.4773L94.9722 37.2443Z" fill="#02897A"/>
</g>
<path d="M96.6459 64.112C96.6459 65.04 96.3259 65.8133 95.6859 66.432C95.0566 67.04 94.0913 67.344 92.7899 67.344H90.6459V72H89.1899V60.848H92.7899C94.0486 60.848 95.0033 61.152 95.6539 61.76C96.3153 62.368 96.6459 63.152 96.6459 64.112ZM92.7899 66.144C93.6006 66.144 94.1979 65.968 94.5819 65.616C94.9659 65.264 95.1579 64.7627 95.1579 64.112C95.1579 62.736 94.3686 62.048 92.7899 62.048H90.6459V66.144H92.7899ZM106.556 67.28C106.556 67.5573 106.54 67.8507 106.508 68.16H99.4996C99.5529 69.024 99.8462 69.7013 100.38 70.192C100.924 70.672 101.58 70.912 102.348 70.912C102.977 70.912 103.5 70.768 103.916 70.48C104.342 70.1813 104.641 69.7867 104.812 69.296H106.38C106.145 70.1387 105.676 70.8267 104.972 71.36C104.268 71.8827 103.393 72.144 102.348 72.144C101.516 72.144 100.769 71.9573 100.108 71.584C99.4569 71.2107 98.9449 70.6827 98.5716 70C98.1982 69.3067 98.0116 68.5067 98.0116 67.6C98.0116 66.6933 98.1929 65.8987 98.5556 65.216C98.9182 64.5333 99.4249 64.0107 100.076 63.648C100.737 63.2747 101.494 63.088 102.348 63.088C103.18 63.088 103.916 63.2693 104.556 63.632C105.196 63.9947 105.686 64.496 106.028 65.136C106.38 65.7653 106.556 66.48 106.556 67.28ZM105.052 66.976C105.052 66.4213 104.929 65.9467 104.684 65.552C104.438 65.1467 104.102 64.8427 103.676 64.64C103.26 64.4267 102.796 64.32 102.284 64.32C101.548 64.32 100.918 64.5547 100.396 65.024C99.8836 65.4933 99.5902 66.144 99.5156 66.976H105.052ZM110.033 64.656C110.289 64.1547 110.652 63.7653 111.121 63.488C111.601 63.2107 112.183 63.072 112.865 63.072V64.576H112.481C110.849 64.576 110.033 65.4613 110.033 67.232V72H108.577V63.232H110.033V64.656ZM124.452 56.928L120.068 74.72H118.628L122.996 56.928H124.452ZM141.631 63.072C142.313 63.072 142.921 63.216 143.455 63.504C143.988 63.7813 144.409 64.2027 144.719 64.768C145.028 65.3333 145.183 66.0213 145.183 66.832V72H143.743V67.04C143.743 66.1653 143.524 65.4987 143.087 65.04C142.66 64.5707 142.079 64.336 141.343 64.336C140.585 64.336 139.983 64.5813 139.535 65.072C139.087 65.552 138.863 66.2507 138.863 67.168V72H137.423V67.04C137.423 66.1653 137.204 65.4987 136.767 65.04C136.34 64.5707 135.759 64.336 135.023 64.336C134.265 64.336 133.663 64.5813 133.215 65.072C132.767 65.552 132.543 66.2507 132.543 67.168V72H131.087V63.232H132.543V64.496C132.831 64.0373 133.215 63.6853 133.695 63.44C134.185 63.1947 134.724 63.072 135.311 63.072C136.047 63.072 136.697 63.2373 137.263 63.568C137.828 63.8987 138.249 64.384 138.527 65.024C138.772 64.4053 139.177 63.9253 139.743 63.584C140.308 63.2427 140.937 63.072 141.631 63.072ZM151.495 72.144C150.674 72.144 149.927 71.9573 149.255 71.584C148.594 71.2107 148.071 70.6827 147.687 70C147.314 69.3067 147.127 68.5067 147.127 67.6C147.127 66.704 147.319 65.9147 147.703 65.232C148.098 64.5387 148.631 64.0107 149.303 63.648C149.975 63.2747 150.727 63.088 151.559 63.088C152.391 63.088 153.143 63.2747 153.815 63.648C154.487 64.0107 155.015 64.5333 155.399 65.216C155.794 65.8987 155.991 66.6933 155.991 67.6C155.991 68.5067 155.789 69.3067 155.383 70C154.989 70.6827 154.45 71.2107 153.767 71.584C153.085 71.9573 152.327 72.144 151.495 72.144ZM151.495 70.864C152.018 70.864 152.509 70.7413 152.967 70.496C153.426 70.2507 153.794 69.8827 154.071 69.392C154.359 68.9013 154.503 68.304 154.503 67.6C154.503 66.896 154.365 66.2987 154.087 65.808C153.81 65.3173 153.447 64.9547 152.999 64.72C152.551 64.4747 152.066 64.352 151.543 64.352C151.01 64.352 150.519 64.4747 150.071 64.72C149.634 64.9547 149.282 65.3173 149.015 65.808C148.749 66.2987 148.615 66.896 148.615 67.6C148.615 68.3147 148.743 68.9173 148.999 69.408C149.266 69.8987 149.618 70.2667 150.055 70.512C150.493 70.7467 150.973 70.864 151.495 70.864ZM162.278 63.072C163.344 63.072 164.208 63.3973 164.87 64.048C165.531 64.688 165.862 65.616 165.862 66.832V72H164.422V67.04C164.422 66.1653 164.203 65.4987 163.766 65.04C163.328 64.5707 162.731 64.336 161.974 64.336C161.206 64.336 160.592 64.576 160.134 65.056C159.686 65.536 159.462 66.2347 159.462 67.152V72H158.006V63.232H159.462V64.48C159.75 64.032 160.139 63.6853 160.63 63.44C161.131 63.1947 161.68 63.072 162.278 63.072ZM170.116 64.432V69.6C170.116 70.0267 170.207 70.3307 170.388 70.512C170.569 70.6827 170.884 70.768 171.332 70.768H172.404V72H171.092C170.281 72 169.673 71.8133 169.268 71.44C168.863 71.0667 168.66 70.4533 168.66 69.6V64.432H167.524V63.232H168.66V61.024H170.116V63.232H172.404V64.432H170.116ZM178.62 63.072C179.281 63.072 179.879 63.216 180.412 63.504C180.945 63.7813 181.361 64.2027 181.66 64.768C181.969 65.3333 182.124 66.0213 182.124 66.832V72H180.684V67.04C180.684 66.1653 180.465 65.4987 180.028 65.04C179.591 64.5707 178.993 64.336 178.236 64.336C177.468 64.336 176.855 64.576 176.396 65.056C175.948 65.536 175.724 66.2347 175.724 67.152V72H174.268V60.16H175.724V64.48C176.012 64.032 176.407 63.6853 176.908 63.44C177.42 63.1947 177.991 63.072 178.62 63.072Z" fill="#AFAFAF"/>
<path d="M3.33378 33.604V21.52H24.3858V77H10.8578V33.604H3.33378ZM33.476 48.5C33.476 39.7853 35.148 32.92 38.492 27.904C41.8867 22.888 47.3333 20.38 54.832 20.38C62.3307 20.38 67.752 22.888 71.096 27.904C74.4907 32.92 76.188 39.7853 76.188 48.5C76.188 57.316 74.4907 64.232 71.096 69.248C67.752 74.264 62.3307 76.772 54.832 76.772C47.3333 76.772 41.8867 74.264 38.492 69.248C35.148 64.232 33.476 57.316 33.476 48.5ZM63.42 48.5C63.42 43.3827 62.8627 39.456 61.748 36.72C60.6333 33.9333 58.328 32.54 54.832 32.54C51.336 32.54 49.0307 33.9333 47.916 36.72C46.8013 39.456 46.244 43.3827 46.244 48.5C46.244 51.9453 46.4467 54.808 46.852 57.088C47.2573 59.3173 48.068 61.1413 49.284 62.56C50.5507 63.928 52.4 64.612 54.832 64.612C57.264 64.612 59.088 63.928 60.304 62.56C61.5707 61.1413 62.4067 59.3173 62.812 57.088C63.2173 54.808 63.42 51.9453 63.42 48.5Z" fill="#02897A"/>
<defs>
<clipPath id="clip0_1_227">
<rect width="16" height="29" fill="white" transform="translate(87.9579 24)"/>
</clipPath>
</defs>
</svg>
